<mxfile host="app.diagrams.net" modified="2023-08-07T11:53:59.960Z" agent="Mozilla/5.0 (Windows NT 10.0; Win64; x64) AppleWebKit/537.36 (KHTML, like Gecko) Chrome/115.0.0.0 Safari/537.36" version="21.6.6" etag="zp-dxXox235YIpa9a0tH" type="github">
  <diagram name="第 1 页" id="C_dEds3PyqGrPJgCPyWY">
    <mxGraphModel>
      <root>
        <mxCell id="0" />
        <mxCell id="1" parent="0" />
      </root>
    </mxGraphModel>
  </diagram>
</mxfile>
